<mxfile host="65bd71144e">
    <diagram id="mqrIFlz194FMjvKEiezR" name="Page-1">
        <mxGraphModel dx="1185" dy="370" grid="0" gridSize="10" guides="1" tooltips="1" connect="1" arrows="1" fold="1" page="1" pageScale="1" pageWidth="1169" pageHeight="1654" math="0" shadow="0">
            <root>
                <mxCell id="0"/>
                <mxCell id="1" parent="0"/>
                <mxCell id="40" style="edgeStyle=none;html=1;endArrow=none;endFill=0;" parent="1" source="3" target="39" edge="1">
                    <mxGeometry relative="1" as="geometry"/>
                </mxCell>
                <mxCell id="3" value="Nota" style="whiteSpace=wrap;html=1;" parent="1" vertex="1">
                    <mxGeometry x="450" y="335" width="90" height="40" as="geometry"/>
                </mxCell>
                <mxCell id="37" style="edgeStyle=none;html=1;endArrow=none;endFill=0;" parent="1" source="4" target="35" edge="1">
                    <mxGeometry relative="1" as="geometry"/>
                </mxCell>
                <mxCell id="47" style="edgeStyle=none;html=1;endArrow=none;endFill=0;" parent="1" source="4" target="45" edge="1">
                    <mxGeometry relative="1" as="geometry"/>
                </mxCell>
                <mxCell id="4" value="Ordem" style="whiteSpace=wrap;html=1;" parent="1" vertex="1">
                    <mxGeometry x="580" y="420" width="90" height="40" as="geometry"/>
                </mxCell>
                <mxCell id="41" style="edgeStyle=none;html=1;endArrow=none;endFill=0;" parent="1" source="5" target="39" edge="1">
                    <mxGeometry relative="1" as="geometry"/>
                </mxCell>
                <mxCell id="46" style="edgeStyle=none;html=1;endArrow=none;endFill=0;" parent="1" source="5" target="45" edge="1">
                    <mxGeometry relative="1" as="geometry"/>
                </mxCell>
                <mxCell id="5" value="Maquina" style="whiteSpace=wrap;html=1;" parent="1" vertex="1">
                    <mxGeometry x="710" y="255" width="90" height="40" as="geometry"/>
                </mxCell>
                <mxCell id="48" style="edgeStyle=none;html=1;endArrow=none;endFill=0;" parent="1" source="6" target="45" edge="1">
                    <mxGeometry relative="1" as="geometry"/>
                </mxCell>
                <mxCell id="61" style="edgeStyle=none;html=1;endArrow=none;endFill=0;" parent="1" source="6" target="59" edge="1">
                    <mxGeometry relative="1" as="geometry"/>
                </mxCell>
                <mxCell id="71" style="edgeStyle=none;html=1;endArrow=none;endFill=0;" parent="1" source="6" target="70" edge="1">
                    <mxGeometry relative="1" as="geometry"/>
                </mxCell>
                <mxCell id="6" value="Material" style="whiteSpace=wrap;html=1;" parent="1" vertex="1">
                    <mxGeometry x="850" y="420" width="90" height="40" as="geometry"/>
                </mxCell>
                <mxCell id="60" style="edgeStyle=none;html=1;endArrow=none;endFill=0;" parent="1" source="9" target="59" edge="1">
                    <mxGeometry relative="1" as="geometry">
                        <mxPoint x="755" y="650" as="sourcePoint"/>
                    </mxGeometry>
                </mxCell>
                <mxCell id="9" value="Pedido de Compra" style="whiteSpace=wrap;html=1;" parent="1" vertex="1">
                    <mxGeometry x="695" y="650" width="120" height="40" as="geometry"/>
                </mxCell>
                <mxCell id="30" style="edgeStyle=none;html=1;endArrow=none;endFill=0;" parent="1" source="10" target="29" edge="1">
                    <mxGeometry relative="1" as="geometry"/>
                </mxCell>
                <mxCell id="10" value="Fornecedor" style="whiteSpace=wrap;html=1;" parent="1" vertex="1">
                    <mxGeometry x="975" y="510" width="90" height="40" as="geometry"/>
                </mxCell>
                <mxCell id="49" style="edgeStyle=none;html=1;endArrow=none;endFill=0;startArrow=none;" parent="1" source="68" target="3" edge="1">
                    <mxGeometry relative="1" as="geometry"/>
                </mxCell>
                <mxCell id="126" style="edgeStyle=orthogonalEdgeStyle;html=1;fontSize=10;endArrow=none;endFill=0;startArrow=none;" parent="1" source="128" target="5" edge="1">
                    <mxGeometry relative="1" as="geometry">
                        <Array as="points">
                            <mxPoint x="755" y="210"/>
                        </Array>
                    </mxGeometry>
                </mxCell>
                <mxCell id="11" value="Preventiva" style="whiteSpace=wrap;html=1;" parent="1" vertex="1">
                    <mxGeometry x="450" y="470" width="90" height="40" as="geometry"/>
                </mxCell>
                <mxCell id="12" value="Usuario" style="whiteSpace=wrap;html=1;" parent="1" vertex="1">
                    <mxGeometry x="130" y="530" width="100" height="40" as="geometry"/>
                </mxCell>
                <mxCell id="13" value="Comprador" style="whiteSpace=wrap;html=1;" parent="1" vertex="1">
                    <mxGeometry x="335" y="650" width="90" height="40" as="geometry"/>
                </mxCell>
                <mxCell id="52" style="edgeStyle=none;html=1;endArrow=none;endFill=0;startArrow=none;" parent="1" source="66" target="3" edge="1">
                    <mxGeometry relative="1" as="geometry"/>
                </mxCell>
                <mxCell id="14" value="Operador" style="whiteSpace=wrap;html=1;" parent="1" vertex="1">
                    <mxGeometry x="310" y="420" width="90" height="40" as="geometry"/>
                </mxCell>
                <mxCell id="51" style="edgeStyle=none;html=1;endArrow=none;endFill=0;startArrow=none;" parent="1" source="64" target="4" edge="1">
                    <mxGeometry relative="1" as="geometry"/>
                </mxCell>
                <mxCell id="53" style="edgeStyle=none;html=1;endArrow=none;endFill=0;startArrow=none;" parent="1" source="62" target="11" edge="1">
                    <mxGeometry relative="1" as="geometry"/>
                </mxCell>
                <mxCell id="15" value="Tecnico" style="whiteSpace=wrap;html=1;" parent="1" vertex="1">
                    <mxGeometry x="335" y="530" width="90" height="40" as="geometry"/>
                </mxCell>
                <mxCell id="16" value="Relatorio" style="whiteSpace=wrap;html=1;" parent="1" vertex="1">
                    <mxGeometry x="802.5" y="540" width="90" height="40" as="geometry"/>
                </mxCell>
                <mxCell id="22" style="edgeStyle=none;html=1;endArrow=none;endFill=0;" parent="1" source="21" target="13" edge="1">
                    <mxGeometry relative="1" as="geometry"/>
                </mxCell>
                <mxCell id="23" style="edgeStyle=none;html=1;entryX=0.5;entryY=1;entryDx=0;entryDy=0;endArrow=none;endFill=0;" parent="1" source="21" target="14" edge="1">
                    <mxGeometry relative="1" as="geometry"/>
                </mxCell>
                <mxCell id="24" style="edgeStyle=none;html=1;endArrow=none;endFill=0;" parent="1" source="21" target="15" edge="1">
                    <mxGeometry relative="1" as="geometry"/>
                </mxCell>
                <mxCell id="25" style="edgeStyle=none;html=1;endArrow=none;endFill=0;" parent="1" source="21" target="12" edge="1">
                    <mxGeometry relative="1" as="geometry"/>
                </mxCell>
                <mxCell id="21" value="" style="triangle;whiteSpace=wrap;html=1;rotation=-180;" parent="1" vertex="1">
                    <mxGeometry x="260" y="525" width="25" height="50" as="geometry"/>
                </mxCell>
                <mxCell id="31" style="edgeStyle=none;html=1;endArrow=none;endFill=0;" parent="1" source="29" target="9" edge="1">
                    <mxGeometry relative="1" as="geometry"/>
                </mxCell>
                <mxCell id="29" value="Contrata" style="rhombus;whiteSpace=wrap;html=1;" parent="1" vertex="1">
                    <mxGeometry x="975" y="650" width="90" height="40" as="geometry"/>
                </mxCell>
                <mxCell id="38" style="edgeStyle=none;html=1;endArrow=none;endFill=0;" parent="1" source="35" target="3" edge="1">
                    <mxGeometry relative="1" as="geometry"/>
                </mxCell>
                <mxCell id="35" value="Gera" style="rhombus;whiteSpace=wrap;html=1;" parent="1" vertex="1">
                    <mxGeometry x="600" y="330" width="50" height="50" as="geometry"/>
                </mxCell>
                <mxCell id="39" value="Para" style="rhombus;whiteSpace=wrap;html=1;" parent="1" vertex="1">
                    <mxGeometry x="450" y="250" width="90" height="50" as="geometry"/>
                </mxCell>
                <mxCell id="43" style="edgeStyle=none;html=1;endArrow=none;endFill=0;" parent="1" source="42" target="9" edge="1">
                    <mxGeometry relative="1" as="geometry"/>
                </mxCell>
                <mxCell id="44" style="edgeStyle=none;html=1;endArrow=none;endFill=0;" parent="1" source="42" target="16" edge="1">
                    <mxGeometry relative="1" as="geometry"/>
                </mxCell>
                <mxCell id="42" value="Tem" style="rhombus;whiteSpace=wrap;html=1;" parent="1" vertex="1">
                    <mxGeometry x="805" y="600" width="85" height="40" as="geometry"/>
                </mxCell>
                <mxCell id="45" value="Consumo" style="rhombus;whiteSpace=wrap;html=1;" parent="1" vertex="1">
                    <mxGeometry x="705" y="330" width="100" height="50" as="geometry"/>
                </mxCell>
                <mxCell id="57" style="edgeStyle=none;html=1;endArrow=none;endFill=0;" parent="1" source="56" target="13" edge="1">
                    <mxGeometry relative="1" as="geometry">
                        <mxPoint x="677.5" y="640" as="sourcePoint"/>
                    </mxGeometry>
                </mxCell>
                <mxCell id="58" style="edgeStyle=none;html=1;endArrow=none;endFill=0;" parent="1" source="56" target="9" edge="1">
                    <mxGeometry relative="1" as="geometry">
                        <mxPoint x="680" y="670" as="targetPoint"/>
                    </mxGeometry>
                </mxCell>
                <mxCell id="56" value="Realiza" style="rhombus;whiteSpace=wrap;html=1;" parent="1" vertex="1">
                    <mxGeometry x="530" y="650" width="90" height="40" as="geometry"/>
                </mxCell>
                <mxCell id="75" style="edgeStyle=none;html=1;endArrow=none;endFill=0;" parent="1" source="59" target="4" edge="1">
                    <mxGeometry relative="1" as="geometry"/>
                </mxCell>
                <mxCell id="59" value="Requisita" style="rhombus;whiteSpace=wrap;html=1;" parent="1" vertex="1">
                    <mxGeometry x="710" y="415" width="90" height="50" as="geometry"/>
                </mxCell>
                <mxCell id="62" value="Cria" style="rhombus;whiteSpace=wrap;html=1;" parent="1" vertex="1">
                    <mxGeometry x="457.5" y="530" width="75" height="40" as="geometry"/>
                </mxCell>
                <mxCell id="63" value="" style="edgeStyle=none;html=1;endArrow=none;endFill=0;" parent="1" source="15" target="62" edge="1">
                    <mxGeometry relative="1" as="geometry">
                        <mxPoint x="474.75" y="620" as="sourcePoint"/>
                        <mxPoint x="492.75" y="460" as="targetPoint"/>
                    </mxGeometry>
                </mxCell>
                <mxCell id="64" value="Executa" style="rhombus;whiteSpace=wrap;html=1;" parent="1" vertex="1">
                    <mxGeometry x="585" y="570" width="80" height="40" as="geometry"/>
                </mxCell>
                <mxCell id="65" value="" style="edgeStyle=none;html=1;endArrow=none;endFill=0;" parent="1" source="15" target="64" edge="1">
                    <mxGeometry relative="1" as="geometry">
                        <mxPoint x="487.75" y="620" as="sourcePoint"/>
                        <mxPoint x="609.75" y="460" as="targetPoint"/>
                        <Array as="points">
                            <mxPoint x="510" y="620"/>
                        </Array>
                    </mxGeometry>
                </mxCell>
                <mxCell id="66" value="Cria" style="rhombus;whiteSpace=wrap;html=1;" parent="1" vertex="1">
                    <mxGeometry x="310" y="335" width="90" height="40" as="geometry"/>
                </mxCell>
                <mxCell id="67" value="" style="edgeStyle=none;html=1;endArrow=none;endFill=0;" parent="1" source="14" target="66" edge="1">
                    <mxGeometry relative="1" as="geometry">
                        <mxPoint x="357.3529411764707" y="420" as="sourcePoint"/>
                        <mxPoint x="452.6470588235293" y="375" as="targetPoint"/>
                    </mxGeometry>
                </mxCell>
                <mxCell id="68" value="Cria" style="rhombus;whiteSpace=wrap;html=1;" parent="1" vertex="1">
                    <mxGeometry x="452.5" y="410" width="85" height="40" as="geometry"/>
                </mxCell>
                <mxCell id="69" value="" style="edgeStyle=none;html=1;endArrow=none;endFill=0;" parent="1" source="11" target="68" edge="1">
                    <mxGeometry relative="1" as="geometry">
                        <mxPoint x="495" y="420" as="sourcePoint"/>
                        <mxPoint x="495" y="375" as="targetPoint"/>
                    </mxGeometry>
                </mxCell>
                <mxCell id="73" style="edgeStyle=none;html=1;endArrow=none;endFill=0;" parent="1" source="70" target="10" edge="1">
                    <mxGeometry relative="1" as="geometry"/>
                </mxCell>
                <mxCell id="70" value="Fornece" style="rhombus;whiteSpace=wrap;html=1;" parent="1" vertex="1">
                    <mxGeometry x="965" y="420" width="110" height="40" as="geometry"/>
                </mxCell>
                <mxCell id="81" value="1...1" style="text;html=1;align=center;verticalAlign=middle;resizable=0;points=[];autosize=1;strokeColor=none;fillColor=none;" parent="1" vertex="1">
                    <mxGeometry x="230" y="555" width="40" height="20" as="geometry"/>
                </mxCell>
                <mxCell id="82" value="0...1" style="text;html=1;align=center;verticalAlign=middle;resizable=0;points=[];autosize=1;strokeColor=none;fillColor=none;" parent="1" vertex="1">
                    <mxGeometry x="350" y="460" width="40" height="20" as="geometry"/>
                </mxCell>
                <mxCell id="83" value="0...1" style="text;html=1;align=center;verticalAlign=middle;resizable=0;points=[];autosize=1;strokeColor=none;fillColor=none;" parent="1" vertex="1">
                    <mxGeometry x="295" y="550" width="40" height="20" as="geometry"/>
                </mxCell>
                <mxCell id="84" value="0...1" style="text;html=1;align=center;verticalAlign=middle;resizable=0;points=[];autosize=1;strokeColor=none;fillColor=none;" parent="1" vertex="1">
                    <mxGeometry x="360" y="630" width="40" height="20" as="geometry"/>
                </mxCell>
                <mxCell id="85" value="1...1" style="text;html=1;align=center;verticalAlign=middle;resizable=0;points=[];autosize=1;strokeColor=none;fillColor=none;" parent="1" vertex="1">
                    <mxGeometry x="350" y="400" width="40" height="20" as="geometry"/>
                </mxCell>
                <mxCell id="86" value="0...N" style="text;html=1;align=center;verticalAlign=middle;resizable=0;points=[];autosize=1;strokeColor=none;fillColor=none;" parent="1" vertex="1">
                    <mxGeometry x="412.5" y="335" width="40" height="20" as="geometry"/>
                </mxCell>
                <mxCell id="87" value="0...N" style="text;html=1;align=center;verticalAlign=middle;resizable=0;points=[];autosize=1;strokeColor=none;fillColor=none;" parent="1" vertex="1">
                    <mxGeometry x="492.5" y="315" width="40" height="20" as="geometry"/>
                </mxCell>
                <mxCell id="88" value="0...1" style="text;html=1;align=center;verticalAlign=middle;resizable=0;points=[];autosize=1;strokeColor=none;fillColor=none;" parent="1" vertex="1">
                    <mxGeometry x="670" y="255" width="40" height="20" as="geometry"/>
                </mxCell>
                <mxCell id="89" value="0...1" style="text;html=1;align=center;verticalAlign=middle;resizable=0;points=[];autosize=1;strokeColor=none;fillColor=none;" parent="1" vertex="1">
                    <mxGeometry x="537.5" y="335" width="40" height="20" as="geometry"/>
                </mxCell>
                <mxCell id="90" value="1...1" style="text;html=1;align=center;verticalAlign=middle;resizable=0;points=[];autosize=1;strokeColor=none;fillColor=none;" parent="1" vertex="1">
                    <mxGeometry x="585" y="400" width="40" height="20" as="geometry"/>
                </mxCell>
                <mxCell id="91" value="1...1" style="text;html=1;align=center;verticalAlign=middle;resizable=0;points=[];autosize=1;strokeColor=none;fillColor=none;" parent="1" vertex="1">
                    <mxGeometry x="425" y="670" width="40" height="20" as="geometry"/>
                </mxCell>
                <mxCell id="92" value="1...N" style="text;html=1;align=center;verticalAlign=middle;resizable=0;points=[];autosize=1;strokeColor=none;fillColor=none;" parent="1" vertex="1">
                    <mxGeometry x="655" y="670" width="40" height="20" as="geometry"/>
                </mxCell>
                <mxCell id="93" value="1...1" style="text;html=1;align=center;verticalAlign=middle;resizable=0;points=[];autosize=1;strokeColor=none;fillColor=none;" parent="1" vertex="1">
                    <mxGeometry x="385" y="575" width="40" height="20" as="geometry"/>
                </mxCell>
                <mxCell id="94" value="1...N" style="text;html=1;align=center;verticalAlign=middle;resizable=0;points=[];autosize=1;strokeColor=none;fillColor=none;" parent="1" vertex="1">
                    <mxGeometry x="585" y="460" width="40" height="20" as="geometry"/>
                </mxCell>
                <mxCell id="95" value="0...1" style="text;html=1;align=center;verticalAlign=middle;resizable=0;points=[];autosize=1;strokeColor=none;fillColor=none;" parent="1" vertex="1">
                    <mxGeometry x="425" y="530" width="40" height="20" as="geometry"/>
                </mxCell>
                <mxCell id="96" value="0...N" style="text;html=1;align=center;verticalAlign=middle;resizable=0;points=[];autosize=1;strokeColor=none;fillColor=none;" parent="1" vertex="1">
                    <mxGeometry x="497.5" y="510" width="40" height="20" as="geometry"/>
                </mxCell>
                <mxCell id="97" value="1...1" style="text;html=1;align=center;verticalAlign=middle;resizable=0;points=[];autosize=1;strokeColor=none;fillColor=none;" parent="1" vertex="1">
                    <mxGeometry x="510" y="450" width="40" height="20" as="geometry"/>
                </mxCell>
                <mxCell id="98" value="1...1" style="text;html=1;align=center;verticalAlign=middle;resizable=0;points=[];autosize=1;strokeColor=none;fillColor=none;" parent="1" vertex="1">
                    <mxGeometry x="510" y="375" width="40" height="20" as="geometry"/>
                </mxCell>
                <mxCell id="99" value="1...N" style="text;html=1;align=center;verticalAlign=middle;resizable=0;points=[];autosize=1;strokeColor=none;fillColor=none;" parent="1" vertex="1">
                    <mxGeometry x="625" y="400" width="40" height="20" as="geometry"/>
                </mxCell>
                <mxCell id="100" value="1...1" style="text;html=1;align=center;verticalAlign=middle;resizable=0;points=[];autosize=1;strokeColor=none;fillColor=none;" parent="1" vertex="1">
                    <mxGeometry x="750" y="295" width="40" height="20" as="geometry"/>
                </mxCell>
                <mxCell id="101" value="1...N" style="text;html=1;align=center;verticalAlign=middle;resizable=0;points=[];autosize=1;strokeColor=none;fillColor=none;" parent="1" vertex="1">
                    <mxGeometry x="852.5" y="400" width="40" height="20" as="geometry"/>
                </mxCell>
                <mxCell id="103" value="1...N" style="text;html=1;align=center;verticalAlign=middle;resizable=0;points=[];autosize=1;strokeColor=none;fillColor=none;" parent="1" vertex="1">
                    <mxGeometry x="720" y="630" width="40" height="20" as="geometry"/>
                </mxCell>
                <mxCell id="104" value="1...1" style="text;html=1;align=center;verticalAlign=middle;resizable=0;points=[];autosize=1;strokeColor=none;fillColor=none;" parent="1" vertex="1">
                    <mxGeometry x="765" y="630" width="40" height="20" as="geometry"/>
                </mxCell>
                <mxCell id="105" value="1...1" style="text;html=1;align=center;verticalAlign=middle;resizable=0;points=[];autosize=1;strokeColor=none;fillColor=none;" parent="1" vertex="1">
                    <mxGeometry x="850" y="580" width="40" height="20" as="geometry"/>
                </mxCell>
                <mxCell id="106" value="1...N" style="text;html=1;align=center;verticalAlign=middle;resizable=0;points=[];autosize=1;strokeColor=none;fillColor=none;" parent="1" vertex="1">
                    <mxGeometry x="810" y="670" width="40" height="20" as="geometry"/>
                </mxCell>
                <mxCell id="107" value="1...1" style="text;html=1;align=center;verticalAlign=middle;resizable=0;points=[];autosize=1;strokeColor=none;fillColor=none;" parent="1" vertex="1">
                    <mxGeometry x="1020" y="490" width="40" height="20" as="geometry"/>
                </mxCell>
                <mxCell id="108" value="1...1" style="text;html=1;align=center;verticalAlign=middle;resizable=0;points=[];autosize=1;strokeColor=none;fillColor=none;" parent="1" vertex="1">
                    <mxGeometry x="1020" y="555" width="40" height="20" as="geometry"/>
                </mxCell>
                <mxCell id="109" value="1...N" style="text;html=1;align=center;verticalAlign=middle;resizable=0;points=[];autosize=1;strokeColor=none;fillColor=none;" parent="1" vertex="1">
                    <mxGeometry x="935" y="415" width="40" height="20" as="geometry"/>
                </mxCell>
                <mxCell id="110" value="1...1" style="text;html=1;align=center;verticalAlign=middle;resizable=0;points=[];autosize=1;strokeColor=none;fillColor=none;" parent="1" vertex="1">
                    <mxGeometry x="670" y="440" width="40" height="20" as="geometry"/>
                </mxCell>
                <mxCell id="111" value="1...N" style="text;html=1;align=center;verticalAlign=middle;resizable=0;points=[];autosize=1;strokeColor=none;fillColor=none;" parent="1" vertex="1">
                    <mxGeometry x="810" y="440" width="40" height="20" as="geometry"/>
                </mxCell>
                <mxCell id="113" style="edgeStyle=none;html=1;endArrow=none;endFill=0;" parent="1" source="112" target="12" edge="1">
                    <mxGeometry relative="1" as="geometry"/>
                </mxCell>
                <mxCell id="112" value="chapa" style="ellipse;whiteSpace=wrap;html=1;aspect=fixed;fontSize=10;" parent="1" vertex="1">
                    <mxGeometry x="100" y="480" width="35" height="35" as="geometry"/>
                </mxCell>
                <mxCell id="115" style="edgeStyle=none;html=1;fontSize=10;endArrow=none;endFill=0;" parent="1" source="114" target="12" edge="1">
                    <mxGeometry relative="1" as="geometry"/>
                </mxCell>
                <mxCell id="114" value="email" style="ellipse;whiteSpace=wrap;html=1;aspect=fixed;fontSize=10;" parent="1" vertex="1">
                    <mxGeometry x="100" y="590" width="30" height="30" as="geometry"/>
                </mxCell>
                <mxCell id="117" style="edgeStyle=none;html=1;fontSize=10;endArrow=none;endFill=0;" parent="1" source="116" target="12" edge="1">
                    <mxGeometry relative="1" as="geometry"/>
                </mxCell>
                <mxCell id="116" value="senha" style="ellipse;whiteSpace=wrap;html=1;aspect=fixed;fontSize=10;" parent="1" vertex="1">
                    <mxGeometry x="50" y="535" width="40" height="40" as="geometry"/>
                </mxCell>
                <mxCell id="119" style="edgeStyle=none;html=1;fontSize=10;endArrow=none;endFill=0;" parent="1" source="118" target="12" edge="1">
                    <mxGeometry relative="1" as="geometry"/>
                </mxCell>
                <mxCell id="118" value="nome" style="ellipse;whiteSpace=wrap;html=1;aspect=fixed;fontSize=10;" parent="1" vertex="1">
                    <mxGeometry x="150" y="610" width="30" height="30" as="geometry"/>
                </mxCell>
                <mxCell id="121" style="edgeStyle=none;html=1;fontSize=10;endArrow=none;endFill=0;" parent="1" source="120" target="13" edge="1">
                    <mxGeometry relative="1" as="geometry"/>
                </mxCell>
                <mxCell id="120" value="codigo" style="ellipse;whiteSpace=wrap;html=1;aspect=fixed;fontSize=10;" parent="1" vertex="1">
                    <mxGeometry x="325" y="720" width="35" height="35" as="geometry"/>
                </mxCell>
                <mxCell id="123" style="edgeStyle=none;html=1;fontSize=10;endArrow=none;endFill=0;" parent="1" source="122" target="15" edge="1">
                    <mxGeometry relative="1" as="geometry"/>
                </mxCell>
                <mxCell id="122" value="codigo" style="ellipse;whiteSpace=wrap;html=1;aspect=fixed;fontSize=10;" parent="1" vertex="1">
                    <mxGeometry x="337.5" y="580" width="35" height="35" as="geometry"/>
                </mxCell>
                <mxCell id="125" style="edgeStyle=none;html=1;fontSize=10;endArrow=none;endFill=0;" parent="1" source="124" target="14" edge="1">
                    <mxGeometry relative="1" as="geometry"/>
                </mxCell>
                <mxCell id="124" value="codigo" style="ellipse;whiteSpace=wrap;html=1;aspect=fixed;fontSize=10;" parent="1" vertex="1">
                    <mxGeometry x="255" y="430" width="35" height="35" as="geometry"/>
                </mxCell>
                <mxCell id="128" value="Para" style="rhombus;whiteSpace=wrap;html=1;" parent="1" vertex="1">
                    <mxGeometry x="450" y="190" width="90" height="50" as="geometry"/>
                </mxCell>
                <mxCell id="129" value="" style="edgeStyle=orthogonalEdgeStyle;html=1;fontSize=10;endArrow=none;endFill=0;" parent="1" source="11" target="128" edge="1">
                    <mxGeometry relative="1" as="geometry">
                        <mxPoint x="450" y="490" as="sourcePoint"/>
                        <mxPoint x="755" y="255" as="targetPoint"/>
                        <Array as="points">
                            <mxPoint x="410" y="490"/>
                        </Array>
                    </mxGeometry>
                </mxCell>
                <mxCell id="131" style="html=1;fontSize=10;endArrow=none;endFill=0;" parent="1" source="130" target="11" edge="1">
                    <mxGeometry relative="1" as="geometry"/>
                </mxCell>
                <mxCell id="130" value="desc" style="ellipse;whiteSpace=wrap;html=1;aspect=fixed;fontSize=10;" parent="1" vertex="1">
                    <mxGeometry x="570" y="485" width="22.5" height="22.5" as="geometry"/>
                </mxCell>
                <mxCell id="133" style="html=1;fontSize=10;endArrow=none;endFill=0;" parent="1" source="132" target="11" edge="1">
                    <mxGeometry relative="1" as="geometry"/>
                </mxCell>
                <mxCell id="132" value="mes" style="ellipse;whiteSpace=wrap;html=1;aspect=fixed;fontSize=10;" parent="1" vertex="1">
                    <mxGeometry x="563.75" y="517.5" width="22.5" height="22.5" as="geometry"/>
                </mxCell>
                <mxCell id="135" style="edgeStyle=none;html=1;fontSize=10;endArrow=none;endFill=0;" parent="1" source="134" target="11" edge="1">
                    <mxGeometry relative="1" as="geometry"/>
                </mxCell>
                <mxCell id="134" value="id" style="ellipse;whiteSpace=wrap;html=1;aspect=fixed;fontSize=10;" parent="1" vertex="1">
                    <mxGeometry x="370" y="490" width="20" height="20" as="geometry"/>
                </mxCell>
                <mxCell id="138" style="edgeStyle=none;html=1;fontSize=10;endArrow=none;endFill=0;" parent="1" source="136" target="11" edge="1">
                    <mxGeometry relative="1" as="geometry"/>
                </mxCell>
                <mxCell id="136" value="period." style="ellipse;whiteSpace=wrap;html=1;aspect=fixed;fontSize=10;" parent="1" vertex="1">
                    <mxGeometry x="417.5" y="440" width="35" height="35" as="geometry"/>
                </mxCell>
                <mxCell id="140" style="edgeStyle=none;html=1;fontSize=10;endArrow=none;endFill=0;" parent="1" source="139" target="3" edge="1">
                    <mxGeometry relative="1" as="geometry"/>
                </mxCell>
                <mxCell id="139" value="desc" style="ellipse;whiteSpace=wrap;html=1;aspect=fixed;fontSize=10;" parent="1" vertex="1">
                    <mxGeometry x="435" y="300" width="22.5" height="22.5" as="geometry"/>
                </mxCell>
                <mxCell id="142" style="edgeStyle=none;html=1;fontSize=10;endArrow=none;endFill=0;" parent="1" source="141" target="66" edge="1">
                    <mxGeometry relative="1" as="geometry"/>
                </mxCell>
                <mxCell id="141" value="data" style="ellipse;whiteSpace=wrap;html=1;aspect=fixed;fontSize=10;" parent="1" vertex="1">
                    <mxGeometry x="301.25" y="311.25" width="27.5" height="27.5" as="geometry"/>
                </mxCell>
                <mxCell id="144" style="edgeStyle=none;html=1;fontSize=10;endArrow=none;endFill=0;" parent="1" source="143" target="3" edge="1">
                    <mxGeometry relative="1" as="geometry"/>
                </mxCell>
                <mxCell id="143" value="rejeit." style="ellipse;whiteSpace=wrap;html=1;aspect=fixed;fontSize=10;" parent="1" vertex="1">
                    <mxGeometry x="570" y="302.5" width="27.5" height="27.5" as="geometry"/>
                </mxCell>
                <mxCell id="146" style="edgeStyle=none;html=1;fontSize=10;endArrow=none;endFill=0;" parent="1" source="145" target="3" edge="1">
                    <mxGeometry relative="1" as="geometry"/>
                </mxCell>
                <mxCell id="145" value="id" style="ellipse;whiteSpace=wrap;html=1;aspect=fixed;fontSize=10;" parent="1" vertex="1">
                    <mxGeometry x="430" y="385" width="22.5" height="22.5" as="geometry"/>
                </mxCell>
                <mxCell id="152" style="edgeStyle=none;html=1;fontSize=10;endArrow=none;endFill=0;" parent="1" source="151" target="5" edge="1">
                    <mxGeometry relative="1" as="geometry"/>
                </mxCell>
                <mxCell id="151" value="id" style="ellipse;whiteSpace=wrap;html=1;aspect=fixed;fontSize=10;" parent="1" vertex="1">
                    <mxGeometry x="815" y="210" width="22.5" height="22.5" as="geometry"/>
                </mxCell>
                <mxCell id="154" style="edgeStyle=none;html=1;fontSize=10;endArrow=none;endFill=0;" parent="1" source="153" target="5" edge="1">
                    <mxGeometry relative="1" as="geometry"/>
                </mxCell>
                <mxCell id="153" value="descrição" style="ellipse;whiteSpace=wrap;html=1;aspect=fixed;fontSize=10;" parent="1" vertex="1">
                    <mxGeometry x="818.75" y="240" width="50" height="50" as="geometry"/>
                </mxCell>
                <mxCell id="156" style="edgeStyle=none;html=1;fontSize=10;endArrow=none;endFill=0;" parent="1" source="155" target="5" edge="1">
                    <mxGeometry relative="1" as="geometry"/>
                </mxCell>
                <mxCell id="155" value="critico" style="ellipse;whiteSpace=wrap;html=1;aspect=fixed;fontSize=10;" parent="1" vertex="1">
                    <mxGeometry x="770" y="200" width="32.5" height="32.5" as="geometry"/>
                </mxCell>
                <mxCell id="158" style="edgeStyle=none;html=1;fontSize=10;endArrow=none;endFill=0;" parent="1" source="157" target="4" edge="1">
                    <mxGeometry relative="1" as="geometry"/>
                </mxCell>
                <mxCell id="157" value="tipo" style="ellipse;whiteSpace=wrap;html=1;aspect=fixed;fontSize=10;" parent="1" vertex="1">
                    <mxGeometry x="672.5" y="475" width="22.5" height="22.5" as="geometry"/>
                </mxCell>
                <mxCell id="160" style="edgeStyle=none;html=1;fontSize=10;endArrow=none;endFill=0;" parent="1" source="159" target="4" edge="1">
                    <mxGeometry relative="1" as="geometry"/>
                </mxCell>
                <mxCell id="159" value="id" style="ellipse;whiteSpace=wrap;html=1;aspect=fixed;fontSize=10;" parent="1" vertex="1">
                    <mxGeometry x="642.5" y="485" width="22.5" height="22.5" as="geometry"/>
                </mxCell>
                <mxCell id="162" style="edgeStyle=none;html=1;fontSize=10;endArrow=none;endFill=0;" parent="1" source="161" target="64" edge="1">
                    <mxGeometry relative="1" as="geometry"/>
                </mxCell>
                <mxCell id="161" value="data" style="ellipse;whiteSpace=wrap;html=1;aspect=fixed;fontSize=10;" parent="1" vertex="1">
                    <mxGeometry x="655" y="543.75" width="22.5" height="22.5" as="geometry"/>
                </mxCell>
                <mxCell id="164" style="edgeStyle=none;html=1;fontSize=10;endArrow=none;endFill=0;" parent="1" source="163" target="9" edge="1">
                    <mxGeometry relative="1" as="geometry"/>
                </mxCell>
                <mxCell id="163" value="id" style="ellipse;whiteSpace=wrap;html=1;aspect=fixed;fontSize=10;" parent="1" vertex="1">
                    <mxGeometry x="668.75" y="710" width="30" height="30" as="geometry"/>
                </mxCell>
                <mxCell id="166" style="edgeStyle=none;html=1;fontSize=10;endArrow=none;endFill=0;" parent="1" source="165" target="9" edge="1">
                    <mxGeometry relative="1" as="geometry"/>
                </mxCell>
                <mxCell id="165" value="data&lt;br&gt;remessa" style="ellipse;whiteSpace=wrap;html=1;aspect=fixed;fontSize=10;" parent="1" vertex="1">
                    <mxGeometry x="705" y="720" width="45" height="45" as="geometry"/>
                </mxCell>
                <mxCell id="168" style="edgeStyle=none;html=1;fontSize=10;endArrow=none;endFill=0;" parent="1" source="167" target="9" edge="1">
                    <mxGeometry relative="1" as="geometry"/>
                </mxCell>
                <mxCell id="167" value="data&lt;br&gt;entrada" style="ellipse;whiteSpace=wrap;html=1;aspect=fixed;fontSize=10;" parent="1" vertex="1">
                    <mxGeometry x="760" y="720" width="45" height="45" as="geometry"/>
                </mxCell>
                <mxCell id="170" style="edgeStyle=none;html=1;fontSize=10;endArrow=none;endFill=0;" parent="1" source="169" target="10" edge="1">
                    <mxGeometry relative="1" as="geometry"/>
                </mxCell>
                <mxCell id="169" value="id" style="ellipse;whiteSpace=wrap;html=1;aspect=fixed;fontSize=10;" parent="1" vertex="1">
                    <mxGeometry x="1090" y="507.5" width="22.5" height="22.5" as="geometry"/>
                </mxCell>
                <mxCell id="173" style="edgeStyle=none;html=1;fontSize=10;endArrow=none;endFill=0;" parent="1" source="172" target="10" edge="1">
                    <mxGeometry relative="1" as="geometry"/>
                </mxCell>
                <mxCell id="172" value="nome" style="ellipse;whiteSpace=wrap;html=1;aspect=fixed;fontSize=10;" parent="1" vertex="1">
                    <mxGeometry x="1090" y="550" width="30" height="30" as="geometry"/>
                </mxCell>
                <mxCell id="175" style="edgeStyle=none;html=1;fontSize=10;endArrow=none;endFill=0;" parent="1" source="174" target="70" edge="1">
                    <mxGeometry relative="1" as="geometry"/>
                </mxCell>
                <mxCell id="174" value="preço" style="ellipse;whiteSpace=wrap;html=1;aspect=fixed;fontSize=10;" parent="1" vertex="1">
                    <mxGeometry x="1090" y="405" width="30" height="30" as="geometry"/>
                </mxCell>
                <mxCell id="177" style="edgeStyle=none;html=1;fontSize=10;endArrow=none;endFill=0;" parent="1" source="176" target="6" edge="1">
                    <mxGeometry relative="1" as="geometry"/>
                </mxCell>
                <mxCell id="176" value="id" style="ellipse;whiteSpace=wrap;html=1;aspect=fixed;fontSize=10;" parent="1" vertex="1">
                    <mxGeometry x="885" y="370" width="20" height="20" as="geometry"/>
                </mxCell>
                <mxCell id="179" style="edgeStyle=none;html=1;fontSize=10;endArrow=none;endFill=0;" parent="1" source="178" target="6" edge="1">
                    <mxGeometry relative="1" as="geometry"/>
                </mxCell>
                <mxCell id="178" value="desc." style="ellipse;whiteSpace=wrap;html=1;aspect=fixed;fontSize=10;" parent="1" vertex="1">
                    <mxGeometry x="910" y="370" width="25" height="25" as="geometry"/>
                </mxCell>
                <mxCell id="181" style="edgeStyle=none;html=1;fontSize=10;endArrow=none;endFill=0;" parent="1" source="180" target="6" edge="1">
                    <mxGeometry relative="1" as="geometry"/>
                </mxCell>
                <mxCell id="180" value="classe" style="ellipse;whiteSpace=wrap;html=1;aspect=fixed;fontSize=10;" parent="1" vertex="1">
                    <mxGeometry x="942.5" y="372.5" width="37.5" height="37.5" as="geometry"/>
                </mxCell>
                <mxCell id="185" style="edgeStyle=none;html=1;fontSize=10;endArrow=none;endFill=0;" parent="1" source="184" target="16" edge="1">
                    <mxGeometry relative="1" as="geometry"/>
                </mxCell>
                <mxCell id="184" value="descrição" style="ellipse;whiteSpace=wrap;html=1;aspect=fixed;fontSize=10;" parent="1" vertex="1">
                    <mxGeometry x="890" y="490" width="50" height="50" as="geometry"/>
                </mxCell>
                <mxCell id="187" style="edgeStyle=none;html=1;fontSize=10;endArrow=none;endFill=0;" parent="1" source="186" target="56" edge="1">
                    <mxGeometry relative="1" as="geometry"/>
                </mxCell>
                <mxCell id="186" value="data&lt;br&gt;criação" style="ellipse;whiteSpace=wrap;html=1;aspect=fixed;fontSize=10;" parent="1" vertex="1">
                    <mxGeometry x="522.5" y="720" width="40" height="40" as="geometry"/>
                </mxCell>
                <mxCell id="189" style="edgeStyle=none;html=1;fontSize=10;endArrow=none;endFill=0;" parent="1" source="188" target="29" edge="1">
                    <mxGeometry relative="1" as="geometry"/>
                </mxCell>
                <mxCell id="188" value="frete" style="ellipse;whiteSpace=wrap;html=1;aspect=fixed;fontSize=10;" parent="1" vertex="1">
                    <mxGeometry x="935" y="702.5" width="37.5" height="37.5" as="geometry"/>
                </mxCell>
                <mxCell id="192" style="edgeStyle=none;html=1;fontSize=10;endArrow=none;endFill=0;" parent="1" source="191" target="59" edge="1">
                    <mxGeometry relative="1" as="geometry"/>
                </mxCell>
                <mxCell id="191" value="qtd" style="ellipse;whiteSpace=wrap;html=1;aspect=fixed;fontSize=10;" parent="1" vertex="1">
                    <mxGeometry x="716.25" y="397.5" width="22.5" height="22.5" as="geometry"/>
                </mxCell>
                <mxCell id="194" style="edgeStyle=none;html=1;fontSize=10;endArrow=none;endFill=0;" parent="1" source="193" target="45" edge="1">
                    <mxGeometry relative="1" as="geometry"/>
                </mxCell>
                <mxCell id="193" value="qtd" style="ellipse;whiteSpace=wrap;html=1;aspect=fixed;fontSize=10;" parent="1" vertex="1">
                    <mxGeometry x="693.75" y="316.25" width="22.5" height="22.5" as="geometry"/>
                </mxCell>
            </root>
        </mxGraphModel>
    </diagram>
</mxfile>